# xmcd
#
# Track frame offsets:
#	150
#	15523
#	31955
#	47910
#	67525
#	86749
#	110108
#	125924
#	143364
#	161812
#	177734
#
# Disc length: 2641 seconds
# Revision: 0
# Processed by: cddbd v1.5.2PL0 Copyright (c) Steve Scherf et al.
# Submitted via: dBpowerAMP V12.0
#
DISCID=950a4f0b
DTITLE=Bjørn Berge - Blackwood
DYEAR=2011
DGENRE=Blues
TTITLE0=In and Out
TTITLE1=Once Again
TTITLE2=Accused
TTITLE3=Goind To Brownswille
TTITLE4=Blackwood
TTITLE5=Woodstock
TTITLE6=Sick'n Tired
TTITLE7=Same Old Fool
TTITLE8=Blues For One
TTITLE9=Those Days
TTITLE10=Darkness
EXTD=
EXTT0=
EXTT1=
EXTT2=
EXTT3=
EXTT4=
EXTT5=
EXTT6=
EXTT7=
EXTT8=
EXTT9=
EXTT10=
PLAYORDER=
